<svg width="2229" height="1642" viewBox="0 0 2229 1642" fill="none" xmlns="http://www.w3.org/2000/svg">
<g clip-path="url(#clip0_208_69)">
<path d="M2216.65 97.3547H12.347C9.07348 97.3511 5.93505 96.0487 3.62031 93.7332C1.30557 91.4177 0.00357799 88.2782 0 85.0036V12.3511C0.00357799 9.07645 1.30557 5.93697 3.62031 3.62147C5.93505 1.30596 9.07348 0.00357182 12.347 0H2216.65C2219.93 0.00357918 2223.06 1.30601 2225.38 3.62151C2227.69 5.93701 2229 9.07646 2229 12.3511V85.0037C2229 88.2783 2227.69 91.4178 2225.38 93.7333C2223.06 96.0487 2219.93 97.3511 2216.65 97.3547Z" fill="#E4E4E4"/>
<path d="M71.6547 62.6696C81.3361 62.6696 89.1844 54.8187 89.1844 45.1341C89.1844 35.4495 81.3361 27.5986 71.6547 27.5986C61.9733 27.5986 54.125 35.4495 54.125 45.1341C54.125 54.8187 61.9733 62.6696 71.6547 62.6696Z" fill="white"/>
<path d="M138.192 62.6696C147.873 62.6696 155.721 54.8187 155.721 45.1341C155.721 35.4495 147.873 27.5986 138.192 27.5986C128.51 27.5986 120.662 35.4495 120.662 45.1341C120.662 54.8187 128.51 62.6696 138.192 62.6696Z" fill="white"/>
<path d="M204.732 62.6696C214.413 62.6696 222.261 54.8187 222.261 45.1341C222.261 35.4495 214.413 27.5986 204.732 27.5986C195.05 27.5986 187.202 35.4495 187.202 45.1341C187.202 54.8187 195.05 62.6696 204.732 62.6696Z" fill="white"/>
<path d="M2151.46 33.0638H2074.84C2073.34 33.0605 2071.9 32.4608 2070.84 31.3965C2069.77 30.3321 2069.18 28.8899 2069.18 27.3864C2069.18 25.8828 2069.77 24.4407 2070.84 23.3763C2071.9 22.3119 2073.34 21.7123 2074.84 21.709H2151.46C2152.96 21.7079 2154.41 22.3041 2155.47 23.3666C2156.54 24.4292 2157.14 25.8711 2157.14 27.3757C2157.14 28.8803 2156.55 30.3245 2155.49 31.391C2154.43 32.4576 2152.99 33.0592 2151.48 33.0638H2151.46Z" fill="white"/>
<path d="M2151.46 54.3548H2074.84C2073.34 54.3515 2071.9 53.7518 2070.84 52.6875C2069.77 51.6231 2069.18 50.181 2069.18 48.6774C2069.18 47.1739 2069.77 45.7317 2070.84 44.6673C2071.9 43.603 2073.34 43.0033 2074.84 43H2151.46C2152.96 42.9989 2154.41 43.5951 2155.47 44.6577C2156.54 45.7202 2157.14 47.1622 2157.14 48.6667C2157.14 50.1713 2156.55 51.6155 2155.49 52.6821C2154.43 53.7486 2152.99 54.3502 2151.48 54.3548H2151.46Z" fill="white"/>
<path d="M2151.46 75.6449H2074.84C2073.34 75.6449 2071.89 75.0467 2070.83 73.982C2069.76 72.9173 2069.17 71.4732 2069.17 69.9675C2069.17 68.4617 2069.76 67.0176 2070.83 65.9529C2071.89 64.8882 2073.34 64.29 2074.84 64.29H2151.46C2152.97 64.2872 2154.41 64.8827 2155.48 65.9454C2156.54 67.0081 2157.14 68.4511 2157.15 69.9568C2157.15 71.4625 2156.56 72.9077 2155.49 73.9744C2154.43 75.0412 2152.99 75.642 2151.48 75.6449H2151.46Z" fill="white"/>
<path d="M628.529 1443.72C636.64 1378.48 677.061 1314.19 739.264 1292.96C714.733 1360.11 714.738 1433.78 739.279 1500.94C748.837 1526.8 762.16 1554.57 753.17 1580.64C747.576 1596.85 733.891 1609.26 718.594 1617.02C703.296 1624.78 686.319 1628.48 669.554 1632.1L666.255 1634.83C639.641 1574.72 620.417 1508.97 628.529 1443.72Z" fill="#F0F0F0"/>
<path d="M739.882 1294.19C703.658 1334.79 681.144 1385.78 675.537 1439.91C674.123 1451.54 674.551 1463.32 676.805 1474.82C679.362 1485.95 684.852 1496.19 692.705 1504.48C699.871 1512.36 708.113 1519.59 713.241 1529.07C715.793 1533.96 717.283 1539.34 717.613 1544.85C717.943 1550.36 717.104 1555.87 715.153 1561.03C710.626 1574.02 701.703 1584.61 692.618 1594.66C682.53 1605.82 671.876 1617.25 667.588 1632.04C667.068 1633.83 664.319 1632.92 664.837 1631.13C672.298 1605.4 697.274 1590.78 709.185 1567.6C714.743 1556.78 717.076 1544.22 711.865 1532.8C707.309 1522.82 698.816 1515.36 691.491 1507.45C683.712 1499.47 678.004 1489.71 674.864 1479.02C672.032 1467.68 671.151 1455.93 672.259 1444.29C674.335 1418.04 680.524 1392.28 690.599 1367.95C701.944 1340.13 717.964 1314.44 737.965 1292.02C739.204 1290.63 741.113 1292.82 739.882 1294.19L739.882 1294.19Z" fill="white"/>
<path d="M676.317 1422.38C667.366 1420.2 659.478 1414.92 654.064 1407.46C648.649 1400.01 646.059 1390.87 646.757 1381.68C646.789 1381.31 646.965 1380.96 647.248 1380.71C647.531 1380.47 647.899 1380.34 648.274 1380.36C648.649 1380.38 649.002 1380.54 649.259 1380.81C649.516 1381.09 649.657 1381.45 649.651 1381.83C648.985 1390.38 651.399 1398.89 656.455 1405.82C661.511 1412.75 668.878 1417.65 677.225 1419.62C679.038 1420.06 678.12 1422.8 676.317 1422.38Z" fill="white"/>
<path d="M688.545 1500.97C704.712 1491.31 716.647 1475.92 721.969 1457.85C722.495 1456.06 725.245 1456.97 724.72 1458.76C719.146 1477.55 706.694 1493.55 689.848 1503.56C688.242 1504.51 686.948 1501.92 688.545 1500.97Z" fill="white"/>
<path d="M704.631 1342.87C707.919 1344.43 711.544 1345.16 715.18 1344.97C718.816 1344.79 722.349 1343.7 725.462 1341.81C727.055 1340.84 728.348 1343.43 726.765 1344.4C723.315 1346.47 719.412 1347.66 715.395 1347.88C711.379 1348.09 707.371 1347.32 703.723 1345.62C703.365 1345.49 703.071 1345.23 702.9 1344.89C702.729 1344.55 702.694 1344.16 702.801 1343.79C702.924 1343.43 703.184 1343.13 703.527 1342.95C703.869 1342.78 704.266 1342.75 704.631 1342.87Z" fill="white"/>
<path d="M928.867 1409.49C927.889 1410.13 926.912 1410.77 925.933 1411.43C912.833 1420.04 900.454 1429.71 888.92 1440.33C888.015 1441.14 887.11 1441.97 886.23 1442.8C858.712 1468.69 836.239 1499.47 819.951 1533.56C813.483 1547.13 808.056 1561.18 803.718 1575.58C797.727 1595.46 792.814 1617.49 780.956 1633.76C779.738 1635.47 778.415 1637.1 776.996 1638.65H669.84C669.596 1638.53 669.351 1638.43 669.107 1638.31L664.828 1638.5C665 1637.74 665.195 1636.96 665.367 1636.2C665.465 1635.76 665.586 1635.32 665.684 1634.88C665.757 1634.59 665.831 1634.3 665.88 1634.03C665.904 1633.93 665.929 1633.83 665.953 1633.76C666.002 1633.49 666.076 1633.24 666.125 1633C667.2 1628.62 668.308 1624.24 669.449 1619.87C669.449 1619.84 669.449 1619.84 669.473 1619.82C677.847 1586.38 690.157 1554.05 706.145 1523.51C706.635 1522.6 707.123 1521.67 707.661 1520.77C715.065 1507.25 723.56 1494.36 733.063 1482.23C738.288 1475.6 743.845 1469.24 749.712 1463.18C764.903 1447.53 782.46 1434.38 801.737 1424.19C840.17 1403.89 884.665 1396.12 925.738 1408.52C926.789 1408.83 927.817 1409.15 928.867 1409.49Z" fill="#F0F0F0"/>
<path d="M928.626 1410.86C875.267 1421.46 826.603 1448.61 789.547 1488.45C781.418 1496.89 774.668 1506.55 769.547 1517.09C764.89 1527.52 763.11 1539 764.39 1550.35C765.372 1560.95 767.603 1571.69 765.99 1582.35C765.084 1587.79 763.037 1592.98 759.985 1597.58C756.932 1602.17 752.943 1606.07 748.278 1609.02C736.846 1616.66 723.35 1619.74 710.047 1622.3C695.276 1625.13 679.89 1627.84 667.563 1637.07C666.069 1638.19 664.422 1635.8 665.913 1634.69C687.361 1618.63 716.102 1622 739.564 1610.66C750.512 1605.37 759.933 1596.75 762.645 1584.5C765.017 1573.78 762.725 1562.71 761.639 1551.98C760.227 1540.93 761.543 1529.7 765.47 1519.27C770.038 1508.51 776.404 1498.6 784.295 1489.97C801.752 1470.26 822.197 1453.42 844.883 1440.07C870.69 1424.68 898.937 1413.82 928.404 1407.97C930.228 1407.6 930.438 1410.5 928.626 1410.86H928.626Z" fill="white"/>
<path d="M800.724 1474.92C794.886 1467.79 791.77 1458.82 791.933 1449.61C792.096 1440.39 795.527 1431.54 801.614 1424.62C802.851 1423.23 805.076 1425.09 803.838 1426.48C798.158 1432.91 794.962 1441.16 794.828 1449.74C794.694 1458.32 797.63 1466.66 803.106 1473.27C804.294 1474.7 801.906 1476.35 800.724 1474.92Z" fill="white"/>
<path d="M763.185 1545.04C781.905 1547.06 800.701 1541.96 815.825 1530.74C817.323 1529.62 818.97 1532.01 817.475 1533.12C801.714 1544.77 782.144 1550.04 762.668 1547.89C760.811 1547.68 761.339 1544.83 763.185 1545.04Z" fill="white"/>
<path d="M871.183 1428.49C872.868 1431.72 875.328 1434.48 878.342 1436.52C881.356 1438.56 884.83 1439.82 888.452 1440.19C890.31 1440.37 889.781 1443.22 887.935 1443.04C883.935 1442.62 880.1 1441.22 876.765 1438.97C873.43 1436.72 870.696 1433.69 868.802 1430.14C868.596 1429.82 868.519 1429.43 868.587 1429.06C868.655 1428.69 868.863 1428.35 869.168 1428.12C869.485 1427.91 869.874 1427.82 870.251 1427.89C870.629 1427.96 870.964 1428.18 871.184 1428.49L871.183 1428.49Z" fill="white"/>
<path d="M722.485 506.571H367.962C357.007 506.559 346.504 502.199 338.757 494.45C331.01 486.7 326.653 476.194 326.641 465.234V272.08C326.653 261.121 331.01 250.615 338.757 242.866C346.504 235.117 357.007 230.758 367.962 230.746H722.485C733.441 230.758 743.944 235.117 751.69 242.866C759.437 250.615 763.795 261.121 763.807 272.08V465.234C763.795 476.193 759.437 486.7 751.691 494.45C743.944 502.199 733.441 506.559 722.485 506.571V506.571Z" fill="#E6E6E6"/>
<path d="M1263.74 506.571H909.215C898.26 506.559 887.757 502.199 880.01 494.45C872.263 486.7 867.906 476.194 867.894 465.234V272.08C867.906 261.121 872.263 250.615 880.01 242.866C887.757 235.117 898.26 230.758 909.215 230.746H1263.74C1274.69 230.758 1285.2 235.117 1292.94 242.866C1300.69 250.615 1305.05 261.121 1305.06 272.08V465.234C1305.05 476.193 1300.69 486.7 1292.94 494.45C1285.2 502.199 1274.69 506.559 1263.74 506.571Z" fill="#10B981"/>
<path d="M1804.99 506.571H1450.47C1439.51 506.559 1429.01 502.199 1421.26 494.45C1413.52 486.7 1409.16 476.194 1409.15 465.234V272.08C1409.16 261.121 1413.52 250.615 1421.26 242.866C1429.01 235.117 1439.51 230.758 1450.47 230.746H1804.99C1815.95 230.758 1826.45 235.117 1834.2 242.866C1841.94 250.615 1846.3 261.121 1846.31 272.08V465.234C1846.3 476.193 1841.94 486.7 1834.2 494.45C1826.45 502.199 1815.95 506.559 1804.99 506.571Z" fill="#E6E6E6"/>
<path d="M722.485 936.941H367.962C357.007 936.929 346.504 932.57 338.757 924.82C331.01 917.071 326.653 906.564 326.641 895.604V702.451C326.653 691.492 331.01 680.985 338.757 673.236C346.504 665.487 357.007 661.128 367.962 661.116H722.485C733.441 661.128 743.944 665.487 751.69 673.236C759.437 680.985 763.795 691.491 763.807 702.45V895.604C763.795 906.564 759.437 917.071 751.691 924.82C743.944 932.57 733.441 936.929 722.485 936.941Z" fill="#F2F2F2"/>
<path d="M1263.74 936.941H909.215C898.26 936.929 887.757 932.57 880.01 924.82C872.263 917.071 867.906 906.564 867.894 895.604V702.451C867.906 691.492 872.263 680.985 880.01 673.236C887.757 665.487 898.26 661.128 909.215 661.116H1263.74C1274.69 661.128 1285.2 665.487 1292.94 673.236C1300.69 680.985 1305.05 691.491 1305.06 702.45V895.604C1305.05 906.564 1300.69 917.071 1292.94 924.82C1285.2 932.57 1274.69 936.929 1263.74 936.941Z" fill="#E6E6E6"/>
<path d="M1288.77 972.484C1323.74 972.484 1352.09 944.125 1352.09 909.144C1352.09 874.162 1323.74 845.804 1288.77 845.804C1253.8 845.804 1225.45 874.162 1225.45 909.144C1225.45 944.125 1253.8 972.484 1288.77 972.484Z" fill="#10B981"/>
<path d="M1315.06 903.825H1293.54V882.289C1293.54 881.624 1293.41 880.965 1293.15 880.35C1292.9 879.735 1292.52 879.177 1292.05 878.706C1291.58 878.235 1291.02 877.862 1290.41 877.607C1289.79 877.353 1289.14 877.222 1288.47 877.222V877.222C1287.81 877.222 1287.15 877.353 1286.53 877.607C1285.92 877.862 1285.36 878.235 1284.89 878.706C1284.42 879.177 1284.04 879.735 1283.79 880.35C1283.54 880.965 1283.4 881.624 1283.4 882.289V903.825H1261.88C1261.21 903.825 1260.55 903.956 1259.94 904.211C1259.32 904.465 1258.76 904.838 1258.29 905.309C1257.82 905.78 1257.45 906.338 1257.2 906.953C1256.94 907.568 1256.81 908.227 1256.81 908.892V908.892C1256.81 909.558 1256.94 910.217 1257.2 910.832C1257.45 911.446 1257.82 912.005 1258.29 912.476C1258.76 912.946 1259.32 913.319 1259.94 913.574C1260.55 913.829 1261.21 913.96 1261.88 913.96H1283.4V935.495C1283.4 936.161 1283.54 936.82 1283.79 937.435C1284.04 938.05 1284.42 938.608 1284.89 939.079C1285.36 939.549 1285.92 939.923 1286.53 940.177C1287.15 940.432 1287.81 940.563 1288.47 940.563V940.563C1289.81 940.563 1291.1 940.029 1292.05 939.079C1293 938.128 1293.54 936.839 1293.54 935.495V913.96H1315.06C1315.73 913.96 1316.39 913.829 1317 913.574C1317.62 913.319 1318.18 912.946 1318.65 912.475C1319.12 912.005 1319.49 911.446 1319.74 910.831C1320 910.217 1320.13 909.558 1320.13 908.892V908.892C1320.13 908.227 1320 907.568 1319.74 906.953C1319.49 906.338 1319.12 905.779 1318.65 905.309C1318.18 904.838 1317.62 904.465 1317 904.21C1316.39 903.956 1315.73 903.825 1315.06 903.825V903.825L1315.06 903.825Z" fill="white"/>
<path d="M1838.35 553.22C1873.32 553.22 1901.67 524.862 1901.67 489.88C1901.67 454.898 1873.32 426.54 1838.35 426.54C1803.38 426.54 1775.03 454.898 1775.03 489.88C1775.03 524.862 1803.38 553.22 1838.35 553.22Z" fill="#10B981"/>
<path d="M1864.65 484.561H1843.12V463.026C1843.12 462.36 1842.99 461.701 1842.73 461.086C1842.48 460.471 1842.1 459.913 1841.63 459.442C1841.16 458.972 1840.6 458.598 1839.99 458.344C1839.37 458.089 1838.72 457.958 1838.05 457.958V457.958C1837.39 457.958 1836.73 458.089 1836.11 458.344C1835.5 458.598 1834.94 458.972 1834.47 459.442C1834 459.913 1833.63 460.471 1833.37 461.086C1833.12 461.701 1832.99 462.36 1832.99 463.026V484.561H1811.46C1810.79 484.561 1810.13 484.692 1809.52 484.947C1808.9 485.202 1808.35 485.575 1807.87 486.045C1807.4 486.516 1807.03 487.075 1806.78 487.689C1806.52 488.304 1806.39 488.963 1806.39 489.629V489.629C1806.39 490.294 1806.52 490.953 1806.78 491.568C1807.03 492.183 1807.4 492.741 1807.87 493.212C1808.35 493.683 1808.9 494.056 1809.52 494.31C1810.13 494.565 1810.79 494.696 1811.46 494.696H1832.99V516.232C1832.99 516.897 1833.12 517.556 1833.37 518.171C1833.63 518.786 1834 519.344 1834.47 519.815C1834.94 520.286 1835.5 520.659 1836.11 520.914C1836.73 521.168 1837.39 521.299 1838.05 521.299V521.299C1839.39 521.299 1840.68 520.765 1841.63 519.815C1842.58 518.865 1843.12 517.576 1843.12 516.232V494.696H1864.64C1865.31 494.696 1865.97 494.565 1866.58 494.31C1867.2 494.056 1867.76 493.682 1868.23 493.212C1868.7 492.741 1869.07 492.183 1869.33 491.568C1869.58 490.953 1869.71 490.294 1869.71 489.628V489.628C1869.71 488.963 1869.58 488.304 1869.33 487.689C1869.07 487.074 1868.7 486.516 1868.23 486.045C1867.76 485.575 1867.2 485.201 1866.58 484.947C1865.97 484.692 1865.31 484.561 1864.64 484.561V484.561L1864.65 484.561Z" fill="white"/>
<path d="M747.517 547.667C782.487 547.667 810.836 519.309 810.836 484.327C810.836 449.346 782.487 420.987 747.517 420.987C712.547 420.987 684.198 449.346 684.198 484.327C684.198 519.309 712.547 547.667 747.517 547.667Z" fill="#10B981"/>
<path d="M773.811 479.008H752.283V457.473C752.283 456.807 752.152 456.148 751.897 455.534C751.642 454.919 751.269 454.36 750.799 453.89C750.328 453.419 749.77 453.046 749.155 452.791C748.541 452.536 747.882 452.405 747.217 452.405V452.405C746.552 452.405 745.893 452.536 745.278 452.791C744.664 453.046 744.105 453.419 743.635 453.89C743.164 454.36 742.791 454.919 742.537 455.534C742.282 456.148 742.151 456.807 742.151 457.473V457.473V479.008H720.623C719.957 479.008 719.299 479.139 718.684 479.394C718.069 479.649 717.511 480.022 717.04 480.493C716.57 480.963 716.197 481.522 715.942 482.137C715.688 482.751 715.557 483.41 715.557 484.076V484.076C715.557 485.42 716.09 486.709 717.04 487.659C717.99 488.61 719.279 489.143 720.622 489.144H742.151V510.679C742.151 511.344 742.282 512.003 742.536 512.618C742.791 513.233 743.164 513.792 743.635 514.262C744.105 514.733 744.663 515.106 745.278 515.361C745.893 515.615 746.551 515.747 747.217 515.747V515.747C747.882 515.747 748.541 515.615 749.155 515.361C749.77 515.106 750.328 514.733 750.799 514.262C751.269 513.792 751.642 513.233 751.897 512.618C752.152 512.004 752.283 511.345 752.283 510.679V489.143H773.811C774.476 489.143 775.135 489.012 775.75 488.758C776.364 488.503 776.923 488.13 777.393 487.659C777.863 487.188 778.237 486.63 778.491 486.015C778.746 485.4 778.877 484.741 778.877 484.076V484.076C778.877 482.732 778.343 481.443 777.393 480.492C776.443 479.542 775.154 479.008 773.811 479.008V479.008V479.008Z" fill="white"/>
<path d="M1221.57 396.828C1222.73 400.323 1223.1 404.029 1222.67 407.686C1222.24 411.342 1221.01 414.859 1219.08 417.989C1217.14 421.119 1214.54 423.786 1211.46 425.803C1208.38 427.819 1204.9 429.135 1201.25 429.659L1171.97 629.575L1123.95 606.11L1172.25 406.557C1171.78 400.377 1173.59 394.237 1177.34 389.302C1181.09 384.367 1186.51 380.978 1192.59 379.779C1198.67 378.58 1204.98 379.653 1210.32 382.795C1215.66 385.937 1219.67 390.93 1221.57 396.828L1221.57 396.828Z" fill="#FFB6B6"/>
<path d="M871.878 1037.11C874.016 1034.11 875.471 1030.68 876.141 1027.06C876.811 1023.44 876.679 1019.72 875.755 1016.16C874.831 1012.59 873.137 1009.27 870.792 1006.44C868.448 1003.6 865.51 1001.31 862.185 999.73L881.937 787.082L840.567 808.295L827.649 1013.21C825.367 1018.97 825.278 1025.37 827.398 1031.2C829.518 1037.02 833.7 1041.86 839.152 1044.81C844.603 1047.76 850.946 1048.6 856.977 1047.18C863.009 1045.76 868.31 1042.18 871.877 1037.11H871.878Z" fill="#FFB6B6"/>
<path d="M900.141 929.554L1077.67 922.724L1087.92 738.301H883.07L900.141 929.554Z" fill="#FFB6B6"/>
<path d="M867.191 1580.86L897.529 1580.86L911.96 1463.8H867.186L867.191 1580.86Z" fill="#FFB6B6"/>
<path d="M859.666 1565.89L907.623 1563.03V1583.58L953.217 1615.08C955.47 1616.63 957.166 1618.87 958.058 1621.46C958.951 1624.04 958.993 1626.85 958.178 1629.46C957.364 1632.08 955.736 1634.36 953.531 1635.99C951.327 1637.61 948.661 1638.48 945.924 1638.48H888.83L878.989 1618.15L875.146 1638.48H853.619L859.666 1565.89Z" fill="#2F2E41"/>
<path d="M1002.13 1580.86L1032.46 1580.86L1046.9 1463.8H1002.12L1002.13 1580.86Z" fill="#FFB6B6"/>
<path d="M897.678 886.261C897.678 886.261 844.558 929.161 873.354 1082.37C868.969 1082.89 873.935 1091.54 873.935 1091.54L878.09 1216.37L881.301 1230.68L870.626 1253.76L875.026 1278.85L861.459 1506.5L911.58 1512.99L959.543 1276.58L968.678 1250L977.84 1226.7L972.898 1201.86L976.951 1163.3L1004.6 1033.27L1011.37 1258.78L1001.93 1280.31L1007.18 1303.94L995.471 1316.49L990.843 1527.48L1044.29 1529.98L1088.51 1317.29L1085.08 1290.14L1090.96 1270.08V1223.2L1101.04 1201.07L1123 1080.44C1123 1080.44 1129.63 986.151 1081.28 875.197L897.678 886.261Z" fill="#2F2E41"/>
<path d="M919.327 585.027C919.327 585.027 852.234 598.301 840.674 655.538C829.113 712.775 821.676 842.298 821.676 842.298L824.208 860.336L889.107 875.39L930.53 693.905L919.327 585.027Z" fill="#3F3D56"/>
<path d="M1072.44 604.347C1072.44 604.347 1079.24 594.814 1117.33 593.344C1118.89 593.283 1116.95 590.171 1116.95 590.171L1135.27 500.619L1196.31 534.425L1186 628.309L1085.7 742.428L1072.44 604.347Z" fill="#3F3D56"/>
<path d="M1034.39 871.318C1005.66 871.32 962.404 868.148 897.289 858.478C893.094 857.845 889.212 855.887 886.209 852.891C883.206 849.894 881.24 846.015 880.597 841.821C878.47 839.575 877.087 836.729 876.634 833.669C876.181 830.608 876.682 827.483 878.067 824.717L878.128 824.599L876.652 822.859C874.37 820.178 873.03 816.822 872.836 813.306C872.642 809.79 873.605 806.307 875.578 803.391L855.413 659.079C853.366 644.748 856.499 630.157 864.247 617.931C871.995 605.704 883.85 596.645 897.68 592.382L905.124 590.063L933.276 553.228L933.831 553.234L1024.21 554.438L1053.54 591.694L1100.95 602.877L1101.07 603.599L1112.08 667.222C1117.8 700.312 1104.67 713.33 1087.92 742.429L1092.83 824.156L1095.07 828.212C1096.31 830.457 1096.72 833.065 1096.24 835.584C1095.76 838.102 1094.41 840.374 1092.44 842.005C1093.93 846.28 1094.03 850.919 1092.73 855.256L1091.57 859.09C1091.57 859.2 1091.26 860.758 1088.76 862.659C1084.24 866.089 1071.28 871.318 1034.39 871.318Z" fill="#3F3D56"/>
<path d="M994.602 1565.89L1042.56 1563.03V1583.58L1088.15 1615.08C1090.41 1616.63 1092.1 1618.87 1092.99 1621.46C1093.89 1624.04 1093.93 1626.85 1093.11 1629.46C1092.3 1632.08 1090.67 1634.36 1088.47 1635.99C1086.26 1637.61 1083.6 1638.48 1080.86 1638.48H1023.77L1013.92 1618.15L1010.08 1638.48H988.555L994.602 1565.89Z" fill="#2F2E41"/>
<path d="M1044.97 472.955C1051.24 434.317 1025.01 397.911 986.381 391.641C947.755 385.371 911.361 411.611 905.093 450.249C898.825 488.888 925.057 525.294 963.682 531.564C1002.31 537.834 1038.7 511.594 1044.97 472.955Z" fill="#FFB6B6"/>
<path d="M1016.46 392.347C990.495 374.481 967.626 371.76 948.841 376.827C946.406 373.059 942.991 370.026 938.963 368.053C924.312 331.124 879.726 308.947 841.462 319.728C802.952 330.578 776.38 373.251 783.626 412.612C788.117 437.009 803.466 458.136 809.64 482.163C821.591 528.675 792.437 581.954 746.829 596.947C790.012 605.621 837.545 579.235 853.037 537.991C860.561 517.958 861.015 496.085 861.972 474.706C862.223 459.95 864.031 445.261 867.364 430.884C869.018 424.434 871.355 418.178 874.335 412.224C880.828 399.136 891.61 388.672 904.884 382.576C903.695 386.254 903.398 390.161 904.017 393.977C904.635 397.792 906.152 401.405 908.442 404.518C898.315 417.209 892.802 430.933 892.802 439.151C871.765 477.614 901.849 510.652 940.3 531.697C955.636 540.134 973.345 543.222 990.63 540.474L992.239 533.605L994.419 539.792L1001.69 560.537C1010.09 564.598 1018.41 569.051 1026.66 573.894C1023.52 559.174 1020.99 544.481 1019.24 530.115C1016.83 510.563 1025.25 481.454 1031.32 463.752C1035.08 452.843 1037.02 441.384 1037.04 429.843V429.338L1042.95 448.338L1064.48 439.151C1060.47 416.172 1064.48 390.085 1016.46 392.347Z" fill="#2F2E41"/>
<path d="M1901.81 1642H327.193C326.319 1642 325.483 1641.65 324.866 1641.03C324.25 1640.41 323.904 1639.57 323.904 1638.69C323.904 1637.82 324.25 1636.98 324.866 1636.36C325.483 1635.74 326.319 1635.39 327.193 1635.39H1901.81C1902.68 1635.39 1903.52 1635.74 1904.13 1636.36C1904.75 1636.98 1905.1 1637.82 1905.1 1638.69C1905.1 1639.57 1904.75 1640.41 1904.13 1641.03C1903.52 1641.65 1902.68 1642 1901.81 1642V1642Z" fill="#CCCCCC"/>
<path d="M740.279 980.808C775.249 980.808 803.598 952.45 803.598 917.468C803.598 882.486 775.249 854.128 740.279 854.128C705.309 854.128 676.96 882.486 676.96 917.468C676.96 952.45 705.309 980.808 740.279 980.808Z" fill="#E6E6E6"/>
<path d="M1692.98 881.065H1470.89C1464.03 881.057 1457.45 878.326 1452.6 873.472C1447.75 868.617 1445.02 862.035 1445.01 855.17V734.17C1445.02 727.305 1447.75 720.723 1452.6 715.869C1457.45 711.014 1464.03 708.284 1470.89 708.276H1692.98C1699.84 708.284 1706.42 711.014 1711.28 715.869C1716.13 720.723 1718.86 727.305 1718.87 734.17V855.17C1718.86 862.035 1716.13 868.617 1711.28 873.472C1706.42 878.326 1699.85 881.057 1692.98 881.065V881.065Z" fill="#F2F2F2"/>
<path d="M1696.25 831.915C1714.83 831.915 1729.88 816.855 1729.88 798.278C1729.88 779.7 1714.83 764.641 1696.25 764.641C1677.68 764.641 1662.63 779.7 1662.63 798.278C1662.63 816.855 1677.68 831.915 1696.25 831.915Z" fill="#10B981"/>
<path d="M1710.22 795.453H1698.79V784.016C1698.79 783.663 1698.72 783.313 1698.58 782.986C1698.45 782.66 1698.25 782.363 1698 782.113C1697.75 781.863 1697.45 781.665 1697.12 781.53C1696.8 781.395 1696.45 781.325 1696.09 781.325C1695.38 781.325 1694.7 781.609 1694.19 782.113C1693.69 782.618 1693.4 783.303 1693.4 784.016V795.453H1681.97C1681.26 795.453 1680.57 795.737 1680.07 796.241C1679.57 796.746 1679.28 797.43 1679.28 798.144V798.144C1679.28 798.497 1679.35 798.847 1679.49 799.174C1679.62 799.5 1679.82 799.797 1680.07 800.047C1680.32 800.297 1680.62 800.495 1680.94 800.63C1681.27 800.766 1681.62 800.835 1681.97 800.835H1693.4V812.272C1693.4 812.625 1693.47 812.975 1693.61 813.302C1693.74 813.628 1693.94 813.925 1694.19 814.175C1694.44 814.425 1694.74 814.623 1695.07 814.758C1695.39 814.893 1695.74 814.963 1696.1 814.963V814.963C1696.81 814.963 1697.49 814.679 1698 814.175C1698.5 813.67 1698.79 812.985 1698.79 812.272V800.835H1710.22C1710.93 800.835 1711.62 800.552 1712.12 800.047C1712.63 799.542 1712.91 798.858 1712.91 798.144V798.144C1712.91 797.791 1712.84 797.441 1712.7 797.114C1712.57 796.788 1712.37 796.491 1712.12 796.241C1711.87 795.991 1711.57 795.793 1711.25 795.658C1710.92 795.523 1710.57 795.453 1710.22 795.453L1710.22 795.453Z" fill="white"/>
<path d="M1783.46 846.727H1600.44C1592.67 846.718 1585.23 843.628 1579.73 838.133C1574.24 832.639 1571.15 825.189 1571.14 817.419V708.133C1571.15 706.703 1571.72 705.332 1572.73 704.322C1573.74 703.312 1575.11 702.745 1576.54 702.745C1577.97 702.745 1579.34 703.312 1580.35 704.322C1581.36 705.332 1581.93 706.703 1581.94 708.133V737.401L1794.53 756.732C1798.77 756.808 1802.82 758.547 1805.8 761.576C1808.78 764.605 1810.45 768.682 1810.45 772.93C1810.45 773.264 1810.42 773.597 1810.36 773.925L1799.65 831.08C1799.5 835.276 1797.73 839.252 1794.71 842.171C1791.69 845.089 1787.66 846.722 1783.46 846.727V846.727ZM1581.94 748.244V817.418C1581.94 822.326 1583.9 827.03 1587.36 830.5C1590.83 833.97 1595.54 835.922 1600.44 835.927H1783.46C1784.89 835.926 1786.27 835.357 1787.28 834.344C1788.29 833.332 1788.86 831.959 1788.86 830.528C1788.86 830.194 1788.89 829.861 1788.95 829.533L1799.64 772.513C1799.54 771.158 1798.92 769.892 1797.92 768.969C1796.93 768.045 1795.62 767.532 1794.26 767.53C1794.1 767.53 1793.93 767.523 1793.77 767.507L1581.94 748.244Z" fill="#10B981"/>
<path d="M1551.81 897.125C1556.78 897.125 1560.81 893.096 1560.81 888.126C1560.81 883.155 1556.78 879.126 1551.81 879.126C1546.84 879.126 1542.81 883.155 1542.81 888.126C1542.81 893.096 1546.84 897.125 1551.81 897.125Z" fill="#10B981"/>
<path d="M1776.27 897.125C1781.23 897.125 1785.26 893.096 1785.26 888.126C1785.26 883.155 1781.23 879.126 1776.27 879.126C1771.3 879.126 1767.27 883.155 1767.27 888.126C1767.27 893.096 1771.3 897.125 1776.27 897.125Z" fill="#10B981"/>
<path d="M1785.26 879.126H1544.61C1543.18 879.126 1541.81 878.557 1540.79 877.544C1539.78 876.532 1539.21 875.158 1539.21 873.726C1539.21 872.294 1539.78 870.92 1540.79 869.908C1541.81 868.895 1543.18 868.326 1544.61 868.326H1785.26C1786.69 868.326 1788.07 868.895 1789.08 869.908C1790.09 870.92 1790.66 872.294 1790.66 873.726C1790.66 875.158 1790.09 876.532 1789.08 877.544C1788.07 878.557 1786.69 879.126 1785.26 879.126V879.126Z" fill="#10B981"/>
<path d="M1590.94 711.732H1544.15C1542.72 711.729 1541.35 711.159 1540.34 710.146C1539.33 709.134 1538.77 707.762 1538.77 706.332C1538.77 704.902 1539.33 703.531 1540.34 702.519C1541.35 701.506 1542.72 700.936 1544.15 700.933H1590.94C1592.36 700.936 1593.73 701.506 1594.74 702.519C1595.75 703.531 1596.32 704.902 1596.32 706.332C1596.32 707.762 1595.75 709.134 1594.74 710.146C1593.73 711.159 1592.36 711.729 1590.94 711.732V711.732Z" fill="#10B981"/>
<path d="M1628.47 876.377C1627.17 876.378 1625.93 875.915 1624.95 875.072L1589.47 844.572C1588.93 844.11 1588.49 843.547 1588.17 842.914C1587.84 842.281 1587.65 841.59 1587.6 840.882C1587.54 840.174 1587.63 839.463 1587.85 838.788C1588.07 838.113 1588.42 837.489 1588.88 836.95C1589.35 836.411 1589.91 835.969 1590.54 835.649C1591.18 835.329 1591.87 835.137 1592.58 835.084C1593.28 835.031 1594 835.119 1594.67 835.341C1595.34 835.564 1595.97 835.917 1596.5 836.381L1631.99 866.881C1632.82 867.6 1633.42 868.558 1633.69 869.626C1633.97 870.693 1633.91 871.82 1633.53 872.854C1633.15 873.889 1632.45 874.78 1631.55 875.41C1630.64 876.04 1629.57 876.377 1628.47 876.376V876.377Z" fill="#10B981"/>
<path d="M1635.94 843.41C1635.23 843.41 1634.53 843.27 1633.88 842.999C1633.22 842.728 1632.63 842.33 1632.12 841.829C1631.62 841.327 1631.23 840.732 1630.95 840.077C1630.68 839.422 1630.54 838.72 1630.54 838.011V751.33C1630.54 749.898 1631.11 748.525 1632.12 747.512C1633.14 746.5 1634.51 745.931 1635.94 745.931C1637.37 745.931 1638.75 746.5 1639.76 747.512C1640.77 748.525 1641.34 749.898 1641.34 751.33V838.01C1641.34 838.719 1641.2 839.421 1640.93 840.076C1640.66 840.731 1640.26 841.327 1639.76 841.828C1639.26 842.329 1638.66 842.727 1638.01 842.999C1637.35 843.27 1636.65 843.41 1635.94 843.41H1635.94Z" fill="#10B981"/>
<path d="M1749.97 843.41C1749.26 843.41 1748.56 843.27 1747.9 842.999C1747.25 842.727 1746.65 842.33 1746.15 841.828C1745.65 841.327 1745.25 840.732 1744.98 840.077C1744.71 839.422 1744.57 838.72 1744.57 838.01V758.53C1744.57 757.1 1745.14 755.73 1746.16 754.72C1747.17 753.71 1748.54 753.143 1749.97 753.143C1751.4 753.143 1752.77 753.71 1753.78 754.72C1754.79 755.73 1755.36 757.1 1755.37 758.53V838.01C1755.37 838.719 1755.23 839.421 1754.96 840.076C1754.69 840.731 1754.29 841.327 1753.79 841.828C1753.29 842.329 1752.69 842.727 1752.04 842.999C1751.38 843.27 1750.68 843.41 1749.97 843.41H1749.97Z" fill="#10B981"/>
</g>
<defs>
<clipPath id="clip0_208_69">
<rect width="2229" height="1642" fill="white"/>
</clipPath>
</defs>
</svg>
