<svg width="64" height="64" viewBox="0 0 64 64" fill="none" xmlns="http://www.w3.org/2000/svg">
<path d="M60.3302 23.977C60.8504 23.8338 61.1607 23.2841 61.005 22.7547C58.9205 15.6621 54.4989 9.52045 48.4826 5.39304C42.1955 1.0799 34.5957 -0.739491 27.099 0.273841C19.6023 1.28717 12.72 5.06412 7.73443 10.901C2.74886 16.7379 4.0561e-07 24.2366 0 32C-4.0561e-07 39.7634 2.74886 47.2621 7.73443 53.099C12.72 58.9359 19.6023 62.7128 27.099 63.7262C34.5957 64.7395 42.1955 62.9201 48.4826 58.607C54.4989 54.4796 58.9205 48.3379 61.005 41.2453C61.1607 40.7159 60.8504 40.1662 60.3302 40.023C59.8099 39.8799 59.2767 40.1976 59.1201 40.7267C57.1587 47.3501 53.0218 53.0844 47.399 56.9419C41.5054 60.9851 34.3811 62.6906 27.3536 61.7407C20.326 60.7908 13.8744 57.2502 9.20088 51.7786C4.52731 46.307 1.95048 39.2776 1.95048 32C1.95048 24.7224 4.52731 17.693 9.20088 12.2214C13.8745 6.7498 20.326 3.20923 27.3536 2.25931C34.3811 1.30939 41.5054 3.01492 47.399 7.05814C53.0218 10.9156 57.1587 16.6499 59.1201 23.2733C59.2767 23.8024 59.8099 24.1201 60.3302 23.977Z" fill="white"/>
<path d="M63.1917 29.5249C64.2694 30.6314 64.2694 32.4253 63.1917 33.5318C62.1141 34.6383 60.3668 34.6383 59.2891 33.5318C58.2114 32.4253 58.2114 30.6314 59.2891 29.5249C60.3668 28.4184 62.1141 28.4184 63.1917 29.5249Z" fill="#0EB17C"/>
<path d="M16.776 23.236V30.2028H24.7589V33.3788H16.776V40.653H25.7568V43.829H12.9841V20.0599H25.7568V23.236H16.776Z" fill="#0EB17C"/>
<path d="M27.1207 31.7623C27.1207 29.44 27.6418 27.3568 28.684 25.5127C29.7484 23.6685 31.1787 22.2342 32.9748 21.2096C34.7932 20.1623 36.7778 19.6387 38.9288 19.6387C41.3902 19.6387 43.5744 20.2648 45.4814 21.517C47.4106 22.7464 48.8076 24.4995 49.6724 26.7763H45.1155C44.5168 25.5241 43.6853 24.5906 42.6209 23.9759C41.5565 23.3612 40.3258 23.0538 38.9288 23.0538C37.3987 23.0538 36.035 23.4067 34.8375 24.1125C33.6401 24.8183 32.6976 25.8314 32.0102 27.1519C31.345 28.4724 31.0124 30.0092 31.0124 31.7623C31.0124 33.5154 31.345 35.0522 32.0102 36.3727C32.6976 37.6932 33.6401 38.7177 34.8375 39.4463C36.035 40.1521 37.3987 40.505 38.9288 40.505C40.3258 40.505 41.5565 40.1976 42.6209 39.5829C43.6853 38.9682 44.5168 38.0347 45.1155 36.7825H49.6724C48.8076 39.0592 47.4106 40.8123 45.4814 42.0418C43.5744 43.2712 41.3902 43.8859 38.9288 43.8859C36.7556 43.8859 34.771 43.3736 32.9748 42.3491C31.1787 41.3018 29.7484 39.8561 28.684 38.0119C27.6418 36.1678 27.1207 34.0846 27.1207 31.7623Z" fill="white"/>
</svg>
