<svg width="427" height="427" viewBox="0 0 427 427" fill="none" xmlns="http://www.w3.org/2000/svg">
<path d="M37.8189 112C32.7171 109.054 26.1674 110.792 23.4804 116.034C1.59391 158.738 -5.30278 207.686 4.09914 254.953C14.1963 305.715 42.4031 351.075 83.4642 382.582C124.525 414.089 175.64 429.595 227.286 426.21C278.932 422.825 327.585 400.78 364.183 364.183C400.78 327.585 422.825 278.932 426.21 227.286C429.595 175.64 414.089 124.525 382.582 83.4642C351.075 42.4031 305.715 14.1963 254.953 4.09915C207.686 -5.30278 158.738 1.5939 116.035 23.4804C110.792 26.1674 109.055 32.717 112 37.8188V37.8188C114.946 42.9206 121.458 44.6395 126.715 41.9817C164.923 22.6666 208.601 16.6305 250.791 25.0226C296.476 34.11 337.301 59.4961 365.657 96.4512C394.014 133.406 407.969 179.41 404.922 225.891C401.876 272.372 382.035 316.16 349.098 349.098C316.16 382.035 272.372 401.876 225.891 404.922C179.41 407.969 133.406 394.014 96.4511 365.657C59.4961 337.301 34.11 296.476 25.0226 250.791C16.6305 208.601 22.6666 164.923 41.9817 126.715C44.6395 121.458 42.9206 114.946 37.8189 112V112Z" fill="white"/>
<circle cx="72.5331" cy="72.5333" r="25.6" fill="white"/>
<path d="M284.068 157.358H266.195V208.274H284.068V157.358ZM234.946 157.14H217.073V208.079H234.946V157.14ZM158.99 109.333L114.333 151.765V304.541H167.924V346.972L212.585 304.541H248.326L328.724 228.153V109.333H158.99ZM310.856 219.682L275.129 253.62H239.392L208.116 283.325V253.62H167.924V126.312H310.856V219.682Z" fill="#9061F9"/>
</svg>
