<svg width="262" height="254" viewBox="0 0 262 254" fill="none" xmlns="http://www.w3.org/2000/svg">
<path d="M246.439 95.1583C248.559 94.5903 249.823 92.4085 249.189 90.3073C240.695 62.1586 222.678 37.7839 198.162 21.4032C172.544 4.28537 141.576 -2.93535 111.028 1.08632C80.4805 5.108 52.4366 20.0978 32.1213 43.2629C11.8061 66.428 0.604982 96.1886 0.60498 127C0.604979 157.811 11.8061 187.572 32.1213 210.737C52.4366 233.902 80.4805 248.892 111.028 252.913C141.576 256.935 172.544 249.714 198.162 232.596C222.678 216.216 240.695 191.841 249.189 163.692C249.823 161.591 248.559 159.409 246.439 158.841C244.319 158.273 242.146 159.534 241.508 161.634C233.516 187.921 216.659 210.679 193.747 225.988C169.731 242.035 140.701 248.803 112.066 245.033C83.4296 241.263 57.1407 227.212 38.0968 205.496C19.0529 183.781 8.55282 155.883 8.55282 127C8.55282 98.1168 19.0529 70.2187 38.0968 48.5033C57.1407 26.7879 83.4296 12.7362 112.066 8.96617C140.702 5.19617 169.731 11.965 193.747 28.0116C216.659 43.3209 233.516 66.079 241.508 92.3655C242.146 94.4654 244.319 95.7264 246.439 95.1583Z" fill="white"/>
<path d="M258.466 117.868C262.957 122.359 263.116 129.482 258.82 133.778C254.524 138.074 247.401 137.916 242.91 133.425C238.419 128.934 238.261 121.81 242.556 117.515C246.852 113.219 253.975 113.377 258.466 117.868Z" fill="#9061F9"/>
<path d="M111.244 125.865C116.186 126.748 120.378 129.351 123.82 133.675C127.262 138 128.983 142.898 128.983 148.369C128.983 153.046 127.747 157.283 125.276 161.077C122.894 164.784 119.408 167.74 114.819 169.947C110.229 172.065 104.89 173.124 98.8009 173.124H62V81.1215H97.08C103.346 81.1215 108.729 82.1805 113.23 84.2985C117.731 86.4166 121.129 89.2847 123.423 92.9031C125.718 96.4331 126.865 100.404 126.865 104.817C126.865 110.112 125.453 114.525 122.629 118.055C119.805 121.585 116.01 124.188 111.244 125.865ZM77.091 119.776H95.7562C100.698 119.776 104.537 118.673 107.273 116.466C110.097 114.172 111.509 110.906 111.509 106.67C111.509 102.522 110.097 99.3013 107.273 97.0068C104.537 94.624 100.698 93.4326 95.7562 93.4326H77.091V119.776ZM97.4771 160.813C102.596 160.813 106.611 159.577 109.523 157.106C112.436 154.635 113.892 151.193 113.892 146.781C113.892 142.28 112.347 138.706 109.259 136.058C106.17 133.411 102.066 132.087 96.9476 132.087H77.091V160.813H97.4771Z" fill="white"/>
<path d="M194.639 80.9998V93.3109H170.149V173.002H155.058V93.3109H130.436V80.9998H194.639Z" fill="#9061F9"/>
</svg>
